<svg width="16" height="16" viewBox="0 0 16 16" fill="none" xmlns="http://www.w3.org/2000/svg">
<path fill-rule="evenodd" clip-rule="evenodd" d="M2 4C2 3.46957 2.21071 2.96086 2.58579 2.58579C2.96086 2.21071 3.46957 2 4 2H12C12.5304 2 13.0391 2.21071 13.4142 2.58579C13.7893 2.96086 14 3.46957 14 4V12C14 12.5304 13.7893 13.0391 13.4142 13.4142C13.0391 13.7893 12.5304 14 12 14H4C3.46957 14 2.96086 13.7893 2.58579 13.4142C2.21071 13.0391 2 12.5304 2 12V4ZM6.78 5.97C6.92045 6.11063 6.99934 6.30125 6.99934 6.5C6.99934 6.69875 6.92045 6.88937 6.78 7.03L5.81 8L6.78 8.97C6.85369 9.03866 6.91279 9.12146 6.95378 9.21346C6.99477 9.30546 7.01681 9.40478 7.01859 9.50548C7.02037 9.60618 7.00184 9.70621 6.96412 9.7996C6.9264 9.89299 6.87026 9.97782 6.79904 10.049C6.72782 10.1203 6.64299 10.1764 6.5496 10.2141C6.45621 10.2518 6.35618 10.2704 6.25548 10.2686C6.15477 10.2668 6.05546 10.2448 5.96346 10.2038C5.87146 10.1628 5.78866 10.1037 5.72 10.03L4.22 8.53C4.07955 8.38937 4.00066 8.19875 4.00066 8C4.00066 7.80125 4.07955 7.61063 4.22 7.47L5.72 5.97C5.86063 5.82955 6.05125 5.75066 6.25 5.75066C6.44875 5.75066 6.63937 5.82955 6.78 5.97ZM9.22 7.03C9.08752 6.88783 9.0154 6.69978 9.01882 6.50548C9.02225 6.31118 9.10097 6.12579 9.23838 5.98838C9.37579 5.85097 9.56118 5.77225 9.75548 5.76883C9.94978 5.7654 10.1378 5.83752 10.28 5.97L11.78 7.47C11.9205 7.61063 11.9993 7.80125 11.9993 8C11.9993 8.19875 11.9205 8.38937 11.78 8.53L10.28 10.03C10.2113 10.1037 10.1285 10.1628 10.0365 10.2038C9.94454 10.2448 9.84522 10.2668 9.74452 10.2686C9.64382 10.2704 9.54379 10.2518 9.4504 10.2141C9.35701 10.1764 9.27218 10.1203 9.20096 10.049C9.12974 9.97782 9.0736 9.89299 9.03588 9.7996C8.99816 9.70621 8.97963 9.60618 8.98141 9.50548C8.98318 9.40478 9.00523 9.30546 9.04622 9.21346C9.08721 9.12146 9.14631 9.03866 9.22 8.97L10.19 8L9.22 7.03Z" fill="white"/>
</svg>
