<?xml version="1.0" ?><svg id="Layer_1" style="enable-background:new 0 0 128 128;" version="1.1" viewBox="0 0 128 128" xml:space="preserve" xmlns="http://www.w3.org/2000/svg" xmlns:xlink="http://www.w3.org/1999/xlink"><style type="text/css">
	.st0{fill:#F0E402;}
	.st1{fill:#444B54;}
	.st2{fill:#EA551B;}
	.st3{fill:#FF392D;}
	.st4{fill:#FFFFFF;}
	.st5{fill:#57906F;}
	.st6{fill:#FF9217;}
	.st7{fill:#FFFAF0;}
	.st8{fill:#FFFAEE;}
	.st9{fill:#F3E9CD;}
</style><g><g><path class="st0" d="M123.7,53.6c-2-11-11.1-17.7-25.3-17.5c-0.4,0-0.8,0-1.2,0c-0.8-6.6-6.4-11.7-13.2-11.7    c-4.9,0-9.2,2.7-11.5,6.6c-2.3-4-6.6-6.6-11.5-6.6c-5,0-9.4,2.8-11.7,6.9c-2.4-3-6.2-4.9-10.3-4.9c-7.4,0-13.3,6-13.3,13.3    c0,0.1,0,0.2,0,0.3C8.2,41.9,3.1,49.2,1.7,59.4c-1.8,13.2,6.2,23.3,18.5,29.4c21.6,10.7,79.9,9.1,96.3-10.9    C119.1,74.5,126,66.5,123.7,53.6z"/></g><g><path class="st1" d="M20.1,91.8c-0.4,0-0.9-0.1-1.3-0.3c-7.5-3.7-13.3-8.8-16.7-14.6c-0.8-1.4-0.3-3.3,1.1-4.1    c1.4-0.8,3.3-0.3,4.1,1.1c2.8,4.8,7.7,9.1,14.1,12.3c1.5,0.7,2.1,2.5,1.4,4C22.3,91.2,21.2,91.8,20.1,91.8z"/></g><g><path class="st5" d="M10.6,63.6c-0.1,0-0.3,0-0.4,0c-1.6-0.2-2.8-1.7-2.6-3.4c0.5-3.8,1.3-9.5,10.1-12.5c1.6-0.5,3.3,0.3,3.8,1.9    c0.5,1.6-0.3,3.3-1.9,3.8c-5.3,1.8-5.6,4.2-6.1,7.6C13.3,62.5,12.1,63.6,10.6,63.6z"/></g><g><path class="st1" d="M58.3,98.3c-15.9,0-30.7-2.5-39.5-6.8c-1.5-0.7-2.1-2.5-1.4-4c0.7-1.5,2.5-2.1,4-1.4c9.8,4.8,28,7.1,46.5,5.9    c1.7-0.1,3.1,1.1,3.2,2.8c0.1,1.7-1.1,3.1-2.8,3.2C65,98.2,61.7,98.3,58.3,98.3z"/></g><g><path class="st1" d="M49.2,34.3c-0.9,0-1.7-0.4-2.3-1.1c-2-2.4-4.9-3.8-8-3.8c-2.8,0-5.4,1.1-7.3,3c-1.2,1.2-3.1,1.2-4.2,0    c-1.2-1.2-1.2-3.1,0-4.2c3.1-3.1,7.2-4.8,11.5-4.8c4.9,0,9.5,2.2,12.6,6c1,1.3,0.9,3.2-0.4,4.2C50.6,34.1,49.9,34.3,49.2,34.3z"/></g><path class="st1" d="M126.6,53.1C126.6,53.1,126.6,53.1,126.6,53.1c-2.3-12.4-12.3-19.8-27.1-20c-2-6.8-8.3-11.7-15.6-11.7   c-4.3,0-8.5,1.8-11.5,4.8c-3-3-7.2-4.8-11.5-4.8c-1.7,0-3,1.3-3,3s1.3,3,3,3c3.6,0,7.1,2,8.9,5.1c0,0,0,0.1,0.1,0.1   c0.2,0.4,0.6,0.7,1,1c1.4,0.8,3.3,0.4,4.1-1.1c1.9-3.2,5.3-5.1,8.9-5.1c5.2,0,9.6,3.9,10.2,9.1c0.2,1.5,1.5,2.6,3,2.6l1.2,0   c12.4-0.2,20.5,5.3,22.3,15.1c0,0,0,0,0,0c2,11.2-3.7,18.2-6.4,21.6l-0.2,0.3c-3.6,4.4-9.9,8.2-18.4,11c-1.6,0.5-2.4,2.2-1.9,3.8   c0.4,1.3,1.6,2.1,2.8,2.1c0.3,0,0.6,0,0.9-0.2c9.7-3.2,16.8-7.6,21.1-12.9l0.2-0.2C122,75.7,129.1,67,126.6,53.1z"/><g><path class="st6" d="M62.4,79.9c-15.7,0-29-2.8-36.9-7.1c-6-3.3-8.1-6.8-6.1-12.2c2.7-7.1,19-1.4,43.4-2.4    c27-1.1,47.4-13,51.2-6.2c3.4,6.1-3.2,13.9-3.2,13.9C105.6,72.9,88.7,79.9,62.4,79.9C62.5,79.9,62.4,79.9,62.4,79.9z"/></g><g><path class="st2" d="M92,67.7c-1.3,0-2.6-0.9-2.9-2.3c-0.4-1.6,0.6-3.2,2.2-3.7c2.8-0.7,5.5-1.6,8.1-2.7c1.5-0.6,3.3,0.1,3.9,1.7    c0.6,1.5-0.1,3.3-1.7,3.9c-2.9,1.2-5.8,2.1-8.8,2.9C92.5,67.6,92.2,67.7,92,67.7z"/></g><g><path class="st2" d="M99,117c-4.5,0-9.5-1.6-13.4-5.1c-8-7.1-7.5-19.8-7.1-30.1c0.2-3.9,0.4-11.1-0.8-12c-0.2-0.1-1.2,0.1-2.1,0.2    c-2.3,0.3-6.1,0.8-13.2,0.8c-11.9,0-23.7-1-32.5-2.9c-1.6-0.3-2.7-1.9-2.3-3.5c0.3-1.6,1.9-2.7,3.5-2.3c8.4,1.7,19.8,2.7,31.2,2.7    c6.7,0,10.3-0.5,12.4-0.7c2-0.3,3.3-0.4,4.8,0.1c5.4,1.9,5.1,9.3,4.8,17.9c-0.4,9-0.8,20.2,5.1,25.3c4.3,3.8,11.7,4.5,14.2,2.3    c1.2-1.1,3.1-1,4.2,0.3c1.1,1.2,1,3.1-0.3,4.2C105.7,116,102.6,117,99,117z"/></g><g><circle class="st7" cx="39.9" cy="40.7" r="8"/></g><g><circle class="st7" cx="61.9" cy="40.7" r="9"/></g><g><circle class="st7" cx="84.9" cy="39.7" r="8"/></g><g><circle class="st1" cx="88.5" cy="39.8" r="3"/></g><g><circle class="st1" cx="32.5" cy="41.8" r="3"/></g><g><circle class="st1" cx="62.5" cy="40.7" r="3"/></g><g><circle class="st1" cx="113.4" cy="103.5" r="3"/></g></g></svg>