<?xml version="1.0" ?><svg id="Layer_1" style="enable-background:new 0 0 128 128;" version="1.1" viewBox="0 0 128 128" xml:space="preserve" xmlns="http://www.w3.org/2000/svg" xmlns:xlink="http://www.w3.org/1999/xlink"><style type="text/css">
	.st0{display:none;fill:#D6D5BD;}
	.st1{fill:#FFFFFF;}
	.st2{fill:#E4E8ED;}
	.st3{fill:#444B54;}
	.st4{fill:#FE4365;}
	.st5{fill:#5BF979;}
	.st6{fill:#006475;}
	.st7{fill:#00B1FE;}
	.st8{opacity:0.5;}
	.st9{fill:#FFB480;}
	.st10{fill:#FF8B80;}
	.st11{fill:#70F0FF;}
	.st12{fill:#00BED9;}
	.st13{fill:#FF2A66;}
	.st14{fill:#A3B859;}
	.st15{fill:#64AD50;}
	.st16{fill:#FF5366;}
	.st17{fill:#BBB798;}
	.st18{fill:#79B9AF;}
	.st19{fill:#39BCC5;}
</style><g><g><circle class="st14" cx="64" cy="64" r="60"/></g><g><path class="st3" d="M30,44.9c-1.3,0-2.5-0.8-2.9-2.1c-0.5-1.6,0.4-3.3,2-3.7c5.3-1.6,9.7-5.4,12.2-10.3c0.7-1.5,2.5-2.1,4-1.4    c1.5,0.7,2.1,2.5,1.4,4c-3.2,6.5-8.9,11.3-15.8,13.4C30.6,44.9,30.3,44.9,30,44.9z"/></g><g><path class="st3" d="M98,44.9c-0.3,0-0.6,0-0.9-0.1c-6.9-2.1-12.6-7-15.8-13.4c-0.7-1.5-0.1-3.3,1.4-4c1.5-0.7,3.3-0.1,4,1.4    c2.4,5,6.9,8.7,12.2,10.3c1.6,0.5,2.5,2.2,2,3.7C100.5,44.1,99.3,44.9,98,44.9z"/></g><g><path class="st1" d="M34.7,24.9c-0.9,0-1.9-0.4-2.5-1.3c-0.9-1.4-0.6-3.2,0.7-4.2c9.1-6.4,19.9-9.8,31-9.8c1.7,0,3,1.3,3,3    s-1.3,3-3,3c-9.9,0-19.5,3-27.6,8.7C35.9,24.7,35.3,24.9,34.7,24.9z"/></g><g><path class="st1" d="M22.3,37.1c-0.6,0-1.2-0.2-1.7-0.6c-1.3-1-1.7-2.8-0.7-4.2c0.5-0.7,1-1.4,1.5-2c1-1.3,2.9-1.5,4.2-0.5    c1.3,1,1.5,2.9,0.5,4.2c-0.5,0.6-0.9,1.2-1.4,1.8C24.2,36.7,23.3,37.1,22.3,37.1z"/></g><g><ellipse class="st3" cx="45" cy="51" rx="7" ry="9"/></g><g><ellipse class="st3" cx="83" cy="51" rx="7" ry="9"/></g><g><path class="st3" d="M47.7,89.5c-0.1,0-0.1,0-0.2,0c-1.7-0.1-2.9-1.5-2.8-3.2c0.3-4.7-1.3-9.3-4.6-12.7c-1.1-1.2-1.1-3.1,0.1-4.2    c1.2-1.1,3.1-1.1,4.2,0.1c4.3,4.6,6.6,10.9,6.2,17.3C50.6,88.2,49.3,89.5,47.7,89.5z"/></g><g><path class="st3" d="M80.3,89.5c-1.6,0-2.9-1.2-3-2.8c-0.4-6.3,1.8-12.6,6.2-17.3c1.1-1.2,3-1.3,4.2-0.1c1.2,1.1,1.3,3,0.1,4.2    c-3.2,3.4-4.9,8.1-4.6,12.7c0.1,1.7-1.1,3.1-2.8,3.2C80.4,89.5,80.4,89.5,80.3,89.5z"/></g><g><path class="st3" d="M81.2,82c-0.5,0-1-0.1-1.5-0.4c-9.7-5.6-21.8-5.6-31.5,0c-1.4,0.8-3.3,0.3-4.1-1.1c-0.8-1.4-0.3-3.3,1.1-4.1    c11.6-6.7,25.9-6.7,37.5,0c1.4,0.8,1.9,2.7,1.1,4.1C83.3,81.4,82.3,82,81.2,82z"/></g><g><circle class="st15" cx="28" cy="85" r="10"/></g><g><circle class="st15" cx="100" cy="85" r="10"/></g></g></svg>