<?xml version="1.0" ?><svg id="Layer_1" style="enable-background:new 0 0 128 128;" version="1.1" viewBox="0 0 128 128" xml:space="preserve" xmlns="http://www.w3.org/2000/svg" xmlns:xlink="http://www.w3.org/1999/xlink"><style type="text/css">
	.st0{fill:#F0E402;}
	.st1{fill:#444B54;}
	.st2{fill:#EA551B;}
	.st3{fill:#FF392D;}
	.st4{fill:#FFFFFF;}
	.st5{fill:#57906F;}
	.st6{fill:#FF9217;}
	.st7{fill:#FFFAF0;}
	.st8{fill:#FF4F40;}
	.st9{fill:#F3E9CD;}
	.st10{fill:#F75342;}
	.st11{fill:none;stroke:#444B54;stroke-width:6;stroke-linecap:round;stroke-linejoin:round;stroke-miterlimit:10;}
	.st12{fill:#FFFAEE;}
	.st13{fill:#FFCE94;}
	.st14{fill:#BC9384;}
	.st15{fill:#F5999A;}
	.st16{fill:#C9C9C9;}
	.st17{fill:#95CDEE;}
	.st18{fill:#006E9F;}
	.st19{fill:#C92C28;}
	.st20{fill:#75FA61;}
</style><g><g><path class="st8" d="M8.4,66.6c0,12.1,1.6,31.7,9.9,35.5c9,4.1,49.7,1,67.7,1c22.4,0,28.5-6,31.3-36.5c3.1-32.7-24.6-59.5-55-59.5    S8.4,33.7,8.4,66.6z"/></g></g><g><g><path class="st4" d="M46.3,19.1c-1.2,0-2.3-0.7-2.8-1.9c-0.6-1.5,0.2-3.3,1.7-3.9c5.5-2.1,11.3-3.2,17.2-3.2c1.7,0,3,1.3,3,3    s-1.3,3-3,3c-5.1,0-10.2,0.9-15,2.8C47,19,46.7,19.1,46.3,19.1z"/></g></g><g><g><path class="st4" d="M36.2,24.4c-0.9,0-1.9-0.5-2.5-1.3c-0.9-1.4-0.6-3.2,0.8-4.2l0.3-0.2c1.4-0.9,3.2-0.6,4.2,0.8    c0.9,1.4,0.6,3.2-0.8,4.2l-0.3,0.2C37.4,24.2,36.8,24.4,36.2,24.4z"/></g></g><g><path class="st1" d="M73.6,112.5c0.1,2.7,0,5.5-1.5,7.1c-0.2,0.2-1.9,1.4-11.3,1.4c-1.6,0-3.1,1.2-3.2,2.8c-0.1,1.7,1.3,3.2,3,3.2   c11.7,0,14.3-1.7,15.8-3.3c3.1-3.2,3.4-7.6,3.2-11.3c17.4-0.9,37.4-10,40.8-45.6c1.5-15.8-3.8-31.2-14.7-43.3   C94.3,11.2,78.6,4.1,62.4,4.1c-11.5,0-22.6,3.6-32.1,10.4c-1.3,0.9-1.8,2.8-0.9,4.1c0.9,1.4,2.9,1.8,4.3,0.8   c8.5-6.1,18.4-9.4,28.7-9.4c14.5,0,28.6,6.4,38.8,17.5c9.8,10.8,14.5,24.5,13.2,38.7c-1.5,16.6-7.1,28.1-16.4,34.4   c-1,0.7-2.3-0.1-2.2-1.3l0,0c0.4-1.6,2.3-9.4,2.9-19.5c1-15.1-1.1-27.5-6.3-36.8c-5.8-10.5-22.2-14.3-31.9-14.3c0,0-0.1,0-0.1,0   c-12.6,0.1-25.5,0.1-35.6,4c-1.7,0.6-3.1-1.3-2.1-2.7c0,0,0-0.1,0.1-0.1c0.9-1.2,1-2.8,0-3.9c-1.3-1.5-3.5-1.4-4.7,0.1   C9.8,36.8,5.4,50.8,5.4,66.6c0,9.6,0.9,24.7,6.1,33.1c0.4,0.9,1.1,1.7,1.9,2.5c1.1,1.2,2.3,2.1,3.6,2.7c0.1,0.1,0.3,0.1,0.4,0.2   c2.5,1.4,5.4,2.5,8.3,3.6l0.9,0.3c0.1,0,0.2,0.1,0.3,0.1c0,0.3-0.1,0.6-0.1,0.9c-0.4,3.2-0.9,7.6,2.7,10.7c3.4,3,10.4,5,20.7,5.9   c0.1,0,0.2,0,0.3,0c1.6,0,3-1.3,3-3c0-1.6-1.3-2.9-2.9-3c-8.6-0.7-14.8-2.3-17.1-4.4c-1.1-1-1-2.5-0.7-5.6"/></g><g><path class="st4" d="M89.8,98.9c0.1-7.3-2.6-11.4-5-13.5c-1.3-1.2-1.2-3.2,0.1-4.4c2-1.9,4.4-5.3,4.7-10.4   c0.4-6.5,0.9-21.3-5.2-26.4c-13.8-11.4-51.2-9.7-61.4,0c-5.3,5-4.6,12.5-4.4,26.9c0.1,4.2,1.7,7.8,3,9.9c0.7,1.2,0.5,2.7-0.5,3.6   c-1.3,1.2-2.7,3.3-2.5,7c0.5,12.6,14.8,10.7,14.8,14.9c0,4.4-1.4,8.1,0.4,9.6c6.1,5.4,36.1,5.9,38.5,3.4c2.5-2.6,1.3-8.4,1.4-11.5   C73.5,104.9,89.6,107.8,89.8,98.9z M33.9,86.7c-7.5,0-8.9-17-9.2-25.6c-0.1-2.3,2.3-3.8,4.3-2.8l12.3,6.1c1.1,0.6,1.8,1.7,1.7,3   C42.5,72.8,40.4,86.7,33.9,86.7z M56.4,98.9c-1.5,2.4-11.4,2.2-13.5,0.1c-1.7-1.7,3.6-11.9,6.6-11.9C52.8,87.1,58,96.3,56.4,98.9z    M68,88.1c-7.1,0-9.3-15.3-9.9-21c-0.1-1.2,0.5-2.4,1.7-3l13.8-6.8c2-1,4.4,0.5,4.3,2.8C77.7,69.2,76.3,88.1,68,88.1z"/></g><g><g><path class="st1" d="M60.6,127c-1.7,0-3-1.3-3-3v-7.9c0-1.7,1.3-3,3-3s3,1.3,3,3v7.9C63.6,125.7,62.3,127,60.6,127z"/></g></g><g><g><path class="st1" d="M44.6,125c-1.7,0-3-1.3-3-3v-5.9c0-1.7,1.3-3,3-3s3,1.3,3,3v5.9C47.6,123.7,46.3,125,44.6,125z"/></g></g></svg>